{"title":"Planes.That.Changed.the.World.Part.3.720p.HDTV.x264-W4F[rarbg]","uid":11831776,"size":921436101,"categoryP":"video","categoryS":"hd___tv_shows","magnet":"?xt=urn:btih:2b4ccbb49801482ebef8893ba4a974f4d99c5a8b&amp;dn=Planes.That.Changed.the.World.Part.3.720p.HDTV.x264-W4F%5Brarbg%5D&amp;tr=udp%3A%2F%2Ftracker.openbittorrent.com%3A80&amp;tr=udp%3A%2F%2Fopen.demonii.com%3A1337&amp;tr=udp%3A%2F%2Ftracker.coppersurfer.tk%3A6969&amp;tr=udp%3A%2F%2Fexodus.desync.com%3A6969","seeders":2,"leechers":0,"uploader":"vickey1992","files":4,"time":1429622546,"description":"RELEASE iNFO\n\nRelease Date 2015.04.21\nAir Date 2015.04.20\nGenre Documentary\n\nEPiSODE iNFO\n\nEpisode 3: The Airbus A380\n\nThe Airbus A380, the largest airliner in history. As tall as a 7\nstory building and certified to carry over 850 passengers, it dwarfs\neven it nearest rival. But getting the world s only Super Jumbo into\nthe skies was a gargantuan challenge in itself, taking nearly 20\nyears and costing upwards of $17 billion.\n\nMediaInfo\n\nVideo\nID : 1\nFormat : AVC\nFormat/Info : Advanced Video Codec\nFormat profile : &lt;a class=&quot;__cf_email__&quot; href=&quot;/cdn-cgi/l/email-protection&quot; data-cfemail=&quot;e8a0818f80a8a4dcc6d9&quot;&gt;[email&amp;#160;protected]&lt;/a&gt;&lt;script cf-hash='f9e31' type=&quot;text/javascript&quot;&gt;\n/* &lt;![CDATA[ */!function(){try{var t=&quot;currentScript&quot;in document?document.currentScript:function(){for(var t=document.getElementsByTagName(&quot;script&quot;),e=t.length;e--;)if(t[e].getAttribute(&quot;cf-hash&quot;))return t[e]}();if(t&amp;&amp;t.previousSibling){var e,r,n,i,c=t.previousSibling,a=c.getAttribute(&quot;data-cfemail&quot;);if(a){for(e=&quot;&quot;,r=parseInt(a.substr(0,2),16),n=2;a.length-n;n+=2)i=parseInt(a.substr(n,2),16)^r,e+=String.fromCharCode(i);e=document.createTextNode(e),c.parentNode.replaceChild(e,c)}}}catch(u){}}();/* ]]&gt; */&lt;/script&gt;\nFormat settings, CABAC : Yes\nFormat settings, ReFrames : 5 frames\nCodec ID : V_MPEG4/ISO/AVC\nDuration : 46mn 6s\nBit rate : 2 364 Kbps\nWidth : 1 280 pixels\nHeight : 720 pixels\nDisplay aspect ratio : 16:9\nFrame rate mode : Constant\nFrame rate : 25.000 fps\nColor space : YUV\nChroma subsampling : 4:2:0\nBit depth : 8 bits\nScan type : Progressive\nBits/(Pixel*Frame) : 0.103\nStream size : 780 MiB (91%)\nWriting library : x264 core 146 r2538 121396c\nEncoding settings : cabac=1 / ref=5 / deblock=1:0:0 / analyse=0x3:0x113 / me=umh / subme=8 / psy=1 / psy_rd=1.00:0.00 / mixed_ref=1 / me_range=16 / chroma_me=1 / trellis=1 / 8x8dct=1 / cqm=0 / deadzone=21,11 / fast_pskip=1 / chroma_qp_offset=-2 / threads=12 / lookahead_threads=2 / sliced_threads=0 / nr=0 / decimate=1 / interlaced=0 / bluray_compat=0 / constrained_intra=0 / bframes=3 / b_pyramid=2 / b_adapt=2 / b_bias=0 / direct=3 / weightb=1 / open_gop=0 / weightp=2 / keyint=250 / keyint_min=25 / scenecut=40 / intra_refresh=0 / rc_lookahead=50 / rc=crf / mbtree=1 / crf=20.0 / qcomp=0.60 / qpmin=0 / qpmax=69 / qpstep=4 / ip_ratio=1.40 / aq=1:1.00\nDefault : Yes\nForced : No\n\nAudio\nID : 2\nFormat : MPEG Audio\nFormat version : Version 1\nFormat profile : Layer 2\nCodec ID : A_MPEG/L2\nCodec ID/Hint : MP2\nDuration : 46mn 6s\nBit rate mode : Constant\nBit rate : 192 Kbps\nChannel(s) : 2 channels\nSampling rate : 48.0 KHz\nCompression mode : Lossy\nDelay relative to video : 5ms\nStream size : 63.3 MiB (7%)\nDefault : Yes\nForced : No","torrent":{"xt":"urn:btih:2b4ccbb49801482ebef8893ba4a974f4d99c5a8b","amp;dn":"Planes.That.Changed.the.World.Part.3.720p.HDTV.x264-W4F%5Brarbg%5D","amp;tr":["udp%3A%2F%2Ftracker.openbittorrent.com%3A80","udp%3A%2F%2Fopen.demonii.com%3A1337","udp%3A%2F%2Ftracker.coppersurfer.tk%3A6969","udp%3A%2F%2Fexodus.desync.com%3A6969"],"infoHash":"2b4ccbb49801482ebef8893ba4a974f4d99c5a8b","infoHashBuffer":{"type":"Buffer","data":[43,76,203,180,152,1,72,46,190,248,137,59,164,169,116,244,217,156,90,139]},"announce":[],"urlList":[]}}